<mxfile host="65bd71144e">
    <diagram id="-KPyPEvSO5M4nBbkx4ct" name="Page-1">
        <mxGraphModel dx="1066" dy="610" grid="1" gridSize="10" guides="1" tooltips="1" connect="1" arrows="1" fold="1" page="1" pageScale="1" pageWidth="4681" pageHeight="3300" math="0" shadow="0">
            <root>
                <mxCell id="0"/>
                <mxCell id="1" parent="0"/>
                <mxCell id="16" style="edgeStyle=none;html=1;exitX=0.25;exitY=1;exitDx=0;exitDy=0;fontSize=19;endArrow=none;endFill=0;dashed=1;" edge="1" parent="1" source="3" target="12">
                    <mxGeometry relative="1" as="geometry"/>
                </mxCell>
                <mxCell id="21" style="edgeStyle=none;html=1;exitX=0.75;exitY=1;exitDx=0;exitDy=0;dashed=1;fontSize=19;endArrow=none;endFill=0;" edge="1" parent="1" source="3" target="18">
                    <mxGeometry relative="1" as="geometry"/>
                </mxCell>
                <mxCell id="3" value="" style="rounded=0;whiteSpace=wrap;html=1;fillColor=#dae8fc;strokeColor=#6c8ebf;" vertex="1" parent="1">
                    <mxGeometry x="180" y="110" width="660" height="380" as="geometry"/>
                </mxCell>
                <mxCell id="4" value="&lt;font style=&quot;font-size: 19px;&quot;&gt;Azure.Identity&lt;/font&gt;" style="rounded=1;whiteSpace=wrap;html=1;strokeColor=#d6b656;fillColor=#FFFFCC;" vertex="1" parent="1">
                    <mxGeometry x="220" y="223" width="160" height="90" as="geometry"/>
                </mxCell>
                <mxCell id="5" value="" style="shape=image;verticalLabelPosition=bottom;labelBackgroundColor=default;verticalAlign=top;aspect=fixed;imageAspect=0;image=data:image/png,iVBORw0KGgoAAAANSUhEUgAAAdAAAAHQCAYAAAARXTsAAAAABGdBTUEAALGPC/xhBQAAACBjSFJNAAB6JgAAgIQAAPoAAACA6AAAdTAAAOpgAAA6mAAAF3CculE8AAAABmJLR0QA/wD/AP+gvaeTAAAAB3RJTUUH6AYWAygrP1YnHwAAWrtJREFUeNrt3XeUFFXaBvDnVufJecg554wBEQRUMKPIiosRRZdg+nRddVfMuq4JUIxrTqiYVjEgCoiSQXLOaZg802k61P3+mAGJMz1dXR2f3zl7zqodat6q7qffqlv3ChCRdlNgRHpSrtkiclU/GipAtoTIkFJkKIqaIaXIAJABIBOACUKkQEobACuAVADGo14tDYDhuHfwA6g46p99ACoBuCGEC1LaAXgBlAIoE0KWqapSJoQsE5BlKlCsGHDAUyUL0dh5CFfCz51GpI1gCYgC8EpqjsnjbyGk0kIVsoWAaCkgWkjI5gBya/4XK58nCaAQwCEBuUtKsVMKuVORYqeU6g6vwbATEyuLudOJGKBEgUSKsE5PbyGl2kVV1NaAaCkhWwopWkCgBSRSE+yboRISOyWwQwjsBOQORVW2CaGsdU8q38EDhogBSoloalaaSbrbQojOUERvSHSCRA8I5LA4AamAEFugYj2EulxKrPNZlFUYX1nE0hADlChOWKdbm6sw9gfQXYXsKoCukKIFK6PHt4ncKaVYrQBrILDa4Pcvct3m2s3CEAOUKNrNhMF8KKWDhDgTKgZAqAMA0ZKFiegXzAFALleF8isEFvoKK5dgCjysDDFAiSLpxdwUI9w9IHGmItUBEmIAqke6UtSSDkCsElL+KqAsrPKJhbizooR1IQYokZ7ehNVoTz5bSHE+BIYA6AxAYWFimh8S6yDET1Kq3/lSHfNxPdwsCzFAiTSyvpTeyq+qQyHlUAicn3CjYROPC8BCKcQcRZVfeybb17MkxAAlCsSzsBmNyWcqwFApxEUAOrEoCW07gDkCmONxWr/D34sqWRJigBIdNiMlz+TH5ULiUgkMRPXsPEQndKdCinlSyC+9Ep9hsr2QJSEGKCWel9IzTT7fRUJglIQ4D4CJRaF68ANYBMhPvEbxIW61H2JJiAFK8eu5jAyTwXtxTWieC8DMolBIw1SKD9iZEgOU4sMrSDJ7Ui4A5DUMTQpTmP4MKd/1wvIFJpdUsCTEAKXYISGM01POFsBNAEaC1zQpMtyA+FRK+bpvkn0+BCRLQgxQik4vpWeaVHUUpJwEoAsLQlFkixTiDZ9BvsnrpcQApegwBYoxK/kcIcTNAC4BT9FSdPMIyB8A8Y4n3z6L66ISA5TC77mkhkaT4Roh5c0AWrEgFGsksE+R8j1F8c9wT3TvYkWIAUq6Mr6YOgCqvFMAFwMwsCIUB3wS+AoQz/omVS5kOYgBSqEzBYolK/UCVZH3QuIMFoTi2ApI+YK3xPEBpsDHchADlILzYm6KSbrHAPJOSLRnQShxyB0AXvC6U17H3QUO1oMYoBSY55PzzQZxqwQmAchiQSiBVUDgLaPqf9o12bWX5SAGKJ2U+YWULtIg74IUY8DRtERHqwLkB0KIZzwT7etYDmKAUnVwvpjSUfrFPyDkGHBgEFFtpID8Rko84J3s+IPlYIBSgrI+l9HCb/T9A8CNDE6ielEBfKYI8UDVxMrNLAcDlBKE7QVbM59iuB/ADQCMrAhR0HyQ4kMFykNVk8u3sRwMUIrX4Jxqa+JTDHdDYjwACytCFDJeAG8ajf6HXbe69rEcDFCKF1NTcs2Qd0khJgOwsSBEuvEAeMvrU6fgDucBloMBSrFqCsym7ORbIcQjkEhlQYjCximApz0p9idxPdwsBwOUYohlaupFqlBfAERLVoMoMiSwV0h5v3eS410up8YApShnmprUE0J5HsBAVoMoasyDIm/3TnCsYikYoBRtpqdmmyD/BYkJ4C0pRNFIhRTve1X1btzuKGA5GKAUaa/AZPIk/w0QDwFIZ0GIop5dAM94pP0JTEYVy8EApQgwTE+9UJHyOQBtWA2imLNZhXq7f5JzNkvBAKVwmZGSZ/KK/0DIsSwGUcz7xCsxAZPthSwFA5R0ZJ6WMkpKvASBHFaDKG6UQoh7vRMqX+NoXQYohZh1WnpLFf6XJXAuq0EUt35RVOXmqtsqtrAUDFDSagoUU07qOEj5DIAUFoQo7jmlEA/78ir/gyvhZzkYoBQE87TkrhJ4HRD9WA2ihLMSQh3nnehcwVIwQCnwrtNszkl5UErcDcDEghAlLK8QeMpjsj+M8fCyHAxQqrXrTO0gId8H0IvVIKKar+plih9/rbq9chNrET0UliB6mKYmXyOhLmN4EtGxZB/VIFeapiXfxlqwA6WjTU3JNQKvCYFLWAwiqjVKgS98ZnETxlcWsRoM0IRmnJo8FEK8LYBGrAYRBahAFeoN/onOb1kKBmjieRNWc2XyFCnE3eCpdCIKphkVmOZV7fdwTl0GaMIwT03pJAXeB9CD1SAijdYJgxzj+ZtjNUsRXux8wsw0NfUGKbCc4UlEIdJZ+sUi09Tka1gKdqDxaSosJiXl35CYzGIQkU5e9RbbJ2EKPCwFAzQu2GbYGvt8hk8BnMZqEJHOX+vLDMJ7hXuiexdrwQCNacbpKQMViY8l0IDVIKIwKZRCXuWb6PiJpdAPr4HqyDQ99WYhMYfhSURhliuk+M44PfXvLAU70NjyYm6Kye96AwJXshhEFGEfed3J43B3gYOlYIBGNcsLaW1VRZ0FoAurQURRYqNQMNIzwb6BpWCARiXjtJRzBPAZgAxWg4iiTKkERvom2X9hKUKD10BDxDQ9+VoBzGZ4ElGUyhTA96bpyWNZCgZodJAQ5mkpUyDFmwDMLAgRRTEzpHi7+juLZyC1YgG1mAKzKSv1dQjJX3REFGtf/297iytv5qQLDNDweyk906T6P4PEYBaDiGLUXK/PeDnuKCtjKRigYWGdlt7SD/83ADqyGkQU49YbhG8EZy5igOrONDWtH4T6FYB8VoOI4iQIDkqoF3knOZexGoHjIKJ6MExLGg6h/szwJKJ4Uj1bmvjFODX5XFaDARpylqmpFylQZgFIYjWIKA770GQhxNfmqSkjWQsGaMiYpyZfpQo5C4CV1SCieP66kwIzTdOTr2Up6mZgCWpnmpp6EwT+y1oRUeI0VuJiwwWW/eq3nhUsBwM0uPCcnjIBwEvs1IkowQgAFxlGmCrU2d5FLAcDtF5SX879h1mYn/GqXo5UJqIEDVFxnnG4yeaf7Z3DcjBAA5Lxcu4jaabUh2xGKwAJj+plUYgoQWNUDGCInrpNp8MkROarDV5MMSbfKsSfpan0VMLu5VJ6RJTQpnkn2m+DgGQp2IGeILdxk+eTTUkTjw5PALAYLOxEiSjR9TcsMWersz2zWQoG6DEavNr0aavReuep/jtDlIgI/QwjLOnqbM/3LAUDFADQ9PW2jxoNhnvrepzFYIGECi9DlIgS1+nKcItXne1ZwABNcC3fbH+3FOojgT6enSgRJTohMEQZYXKos72/MUATVJu3utzqk97nUM/BVAxRIkr4EIUYZrjAckD91rOcAZpg2r3deVyVWjUDQU6SwBAlooTPUOAC4wjTVv9s7xoGaILo+k7vMQ6/83Wtfz9DlIgYouJS4wjzBv9sz/pE++MTboq6Hh/1v6TCV/EmII2heL1UcypSTMn8GBFRojJI4D3D9KQRDNA4NnjmsLNLncUfSEhzKF831ZyKZBNXOSOihGVWpPKpaXpafwZoHLr8q6s673Ts+kTqtJ5nmjmNnSgRJTKbkOrn1unW5gzQOHLfsscaripZ9Ylfqrl6vg9P5xJRIpNAQ780fovnMjIYoHFg5raZ6Z+u/WCmV/V2DMf7MUSJKMF1Mhl9n2MKzPH+h8b1KNz9cn/SDd/e8l+nzzU8nO/L0blElOBaGJJMTdTZ3i8ZoLF4KkFK6+CPhz1S5i4fF4n3Z4gSUWITPZXhZr862zOfARpb4Wke9MmwG/Y5DjyKCC7ZxrlziSihI1RgsOEC03b1W+/quPz74jA8jRf/74oLVxeu/jjUt6sEi+uJElEC80ohh/smOn6Ktz8srgYRSSkNN/8wod+awtVvR0t4AhxYREQJzSSkmGl5Ma0NAzR6w1N8sGFWk5/2z/2vCpkWbdvHECWiBJalquosPJ0fV1+CcROglajMemTpQ1N90tc+WreRIUpECayryep4PZ7+oLgYRCSlzDjrg3PuLPOW3RTt28rRuUSUwLoYLjCVq996F8XDHxPzg4iklCmXfnnl+StLVn0Yqgniw6HCUwGH18mPExElGp+UGOqbbJ8X639ITJ/ClVJaH1n8SPvVJX/MiKXwBDh3LhElLKMQ+Ng2w9aYARq58DSuLVmb++7Gj2b4oebE4t/Aa6JElKDyfT7Dp7E+3V9MXgOVUioAsod8dt6/nf7wTtMXarwmSkQJqonBZs5SZ3u+ZQcaXpmDZg0bXeG1/zUejiJ2okSUkAQmmKalXs8ADV/3mX7TD7d231m26+l4Oo4YokSUmOSL5qkpnRig+odn0sqylRk/75s3XQppibfDKNWcimRTEj9PRJRIbFLgY7wJa6xteMxcA5VSmgBknj/roilOv/O8eD2SeE2UiBJQnsFrsanfen5gBxr68FQAZF741chBZVXlN8b7kcTTuUSUcKS80zAtKaYGhcbKKdz0F9e/lru+ZN3ziMMVZBiiREQQAsrreCU1Zm5LjPoAlVKmALBOWzb1Wb9U8xPpaGKIElFCJSjQyOiRrzFAQxOeZgCpZ3wy+FqX331uIh5QDFEiSrAQvdQ0PXUcA1RbeCoAMu/+7b4W++37HkjkA4qjc4kooUj1ecvzqe2jfTOjuQPNWF+63vLFli9fkpAJ34Jx7lwiSqA+NFk14v1on+ovKm9jkVImA0g+7/ML7rH7HJfwYKrGW1yIKIE0MiaZ4Z/t+ZkdaODhaQSQetPcWzuWVJXdymPoWLwmSkSJQgL/ML2Y3IMBGlh4CgAZxa5iwy975v1bQpp4CDFEiShhGaHiFcyMzrOl0daBpgEwDf/qkps9qrc3jx2GKBElOtHPVJA8kQFae/dpAZD0wIKHmh5yHrqLB01gIcrRuUSUACH6uPWl9FYM0JOHpwIgHQA+3fnpvznqth4tO0fnElH8S1J96osM0FPkAADDwE+HjXb53GfzWKl/J8oQJaJ4JoU83zw1+WoG6LHdpwWA7cX1r2Xtse9+gIcJQ5SI6OQhKl7AjJQ8BiiOjLpNB4Dpy6Y/rko1m4cIQ5SI6BSyTV7xHwZotXQAhvO/vHSY0++8mMcGQ5SIqFZCjjVOS46KNaEjFqCHT92uL11v2ly2cQqPCoYoEVFAGQoxHVNhScgAPfrU7bU/3HSzX/W35CER+hDlLS5EFKfamETy3xK1A00FYHhuzfScImfhJB4L+uAtLkQUx33ovzA1JTehAlRKaQKQDABv/PH6fSpkGg8EfTtRhigRxaEMk8DDidaBpgHA9T/c1KXS67iSxwBDlIgoSDeZX0rulhABKqVMAqrXd1t44LeHEd3rkTJEiYiim0Gq4vm4D9Ca6fpSAWDorOEXV6me07jvGaJERNrCBYPN01IvjfcONA2AMr9gvnV7xfb7udcZokREoclQ+QzehDUuA1RKaQZgA4A75t5zq1+qTbnLIxuivMWFiOJIK6Mj9bZ47UDTAOCplc/mFbuLJ3BfRx5vcSGieCIg7w/3bS26B2jNwCETAHyw4YNJEmDrE0WdKEOUiOKCRKpZiHviJkBrZhxKBYCnVz2dX15VcTX3MkOUiEifDJUTbTNsjeOlA005/B7vrP3wDglp5S5miBIR6cTq8xvC1oXqFqBSSgNqZhz612//alLptV/FfcsQJSLSuQ0db3vRFpaBqnp2oGkABADM2vbVXRLSxD0b/SHK0blEFOMsPmkIy62SugRozXy3VgC4+7f7WlT6nJdzn8YGjs4lojjoQm+wvpTeKlY70NTD/+ebHd/+HyCN3KOx1YkyRIkohpn8ft8DMRegNQtlWwDgbz9PbufwOC7hvmSIEhGFl7jG8nxq+1jrQI90nz/vnXcXAAN3JEOUiCjMDKpR/jNmAlRKaUXNpAnjf5rQwelzXsh9yBAlIooIiavM01I7xEoHeqT7/PXAb7egZhQuMUSJiCJAkZB3Rn2ASiltAIxA9axDDq/jMu67+ApR3uJCRDHoGryY3CDaO9CUw//nw/Uzb+R9n/GHt7gQUQyymFXxt6gN0KO7z9lb5yaVejjnbTx3ogxRIoolEpiAp/ND/sUVqg70SPf50IopY1SpZnKXMUSJiKJElsnmuC7UL6p5kE/NyNtMANjn2mc4a+aQBX7V34L7K/5Veiph9zp0e32LwYIsaxasBgsyrZmwGaywGutej8BqtMJqsKLKXwWXzwW71w6v6kNZVRmq/B4UuYpQ5a/iDiRKrD50hzff0RZXwh+qVwzFDEFHus9rZ4+7gOGZWJ0ogKBDNNmUhLYZbdEmvTXaZbZB24w2aJjcEA2S8pGflI9sa5Zu215aVYYCZwEKXUUocBZgT+VebC3fhm1l27G1fDv22vdClSp3MlHcEC3NB1Mu8cA+KyoCtGbWoSODhXbZd93EncQQPZkMSzp65fZE77ye6FXzv5ZpkfutlWnJQKYlAx0yTz5RSZW/ClvKtmJ10RqsLPwDq2r+V+6p4E4nitUeVMi/AwhZgGo6hSulzAZgBoArZo/pv/Tg0s+5ixJThacCDq/zqGBNwVmNzsSgJmdjcJOz0TW7CxShxPaHDxLby3fg9wOLMG/fAszf9yt2VOzkztdJu8y26JrdJejnH3QcxMIDv0f0b7ik1UUwKsaY3f64DFFVnOm7rfK3iHagUkrz4fAEgLVFa8dz1ySuNHMaWqQ2x9BmQ3BxqwtxeoP+QX9xRCsBgdbprdA6vRX+2mEMAGCvfS/m7VuAObt/xve7fkCRu5gHQ4jc3mMSxnW+PujnT/9jRkQDqGFyA3wy4oOgnz/tj5cYoHpQ5J0AIhugqFksGwCeXPZkA5fPNYx7JvE0T22Gy1pfgvObn4uOWR0S7u9vktIEV7e/Cle3vwp+6cfvBxbjm53f4usd32Jz6RYeIBr0yeul6fnLDq2I6Pb3ze8T09sfrwRwSdK0pEbOSc79EQlQKaUBNet9AsAnW764Cpw0PmGkmFIwosX5GNX2cvTN7w3BGRsBAAZhwIBGZ2BAozPwxBmPYmPpJny0eSY+2PQxdlbsYoHqwWa0oXN2J02vsbRgWUwHaKS3P44ZPcJwLYAnQhDGQQVo2uEOtNhVrPT9+Izf/VJtyv0S3zpktsd1ncbi0lYXw2a0sSCBfl4g8duBRfhg00f4dMsslFaVsSh1OL1hf8y7fE7Qzy/3VCDv1SaQkBH7G76/9H8Y3OTsoJ5bVlWO/NeaRnT74/xTucNb7GiDKdA01L7eHaiUUgA4MinqNXPGDWR4xndXNbTZEFzfcSxOb3gaCxLUr1SBMxuejjMbno6+eX1w89y/sSh1dW952ru3SIaPIhT01nAKOtLbnwCfypbGnOTBPjh+CmuA1oTnkc51e9k2TtsXhxShYHjz83BXr9vROr0VC0Jh1Sdf4/XPgsheP+yQ2R5p5tTgt5/XP/WPUCluAhD2AD0yeOg/K17Idfnc53JXxF9w/l+vO9AqvSULQpEJ0Lze2gL00PLIdtD5Gre/YDkPAv1dhqkpuZhsLwxLgNZM23dksNDHW2ZeyVVX4seARmfgX/3uR/vMdiwGRUyWNROtM7Sd9Vga4QDql99X4w8AdqBhYDYqcqwPeDZcHeiRa59OOEWxu3gM90Hs65LdGQ/0vZfXOCkq9M7rpWlk937HfhxwHIjZDnSffV/Etz9RCIibIfEcRHAXnAMO0JpbVyyH/3nMl9ed4Vf9PMcXwzIs6bivz98xqu3lMT9LEMUPrac/I919ar0FZylP34aPRHvj9NQzfKhcqHcHmnT0P2yu3MzBQzHsghbD8cjpDyLbms1iUFTRfP0zwgHUK7cHTErwV7Yiff028bpQ3AQgqACtT9tx5Ma/9zZ9kub0OIez9LGnSUpjvHPuf/HS4KkMT4pKvfN6agvQCF8/7NdA4/XPAl7/DHMbOgov5qboFqDHDx56fe0r50khLSx87HWd317yJc5ufBaLQVH6A68JGiY3DP6rEBLLIz6FX29N27+icCUPhPBKMkvXhcE8MdBTuMecvj3oOHQxax47Us2pePS0Kbi0NXcbRTet939uKd2KsqryyHagGqbw21y6JeLbn4hUidEAPgp5B3r84KH3Nn2S5va7B7LksaFffh/MuWw2w5NiI0A1Xv9ceiiy88fm2XLRLLVZ8NvP+W8jQgDD8Upmuh4d6DGTnr669tURvPczNtzQ6Vrc3/feuFlWzOlzwuF1wu61H/PvzYoJSaYj83sg2ZgEs8HMAyAGaZ+AIMKnbxtwBZYYZTF7PBd5gPd0DdBDzoOXsNbRzWa04akzH8MlrS6KmW32Sz92VuzE+pKN2Fi6GVvKtuCgowB77ftwyHkIh1z1nywkxZSMvKQ85NlykW3LRq4tB42SG6JVWiu0y2yLthltkG3N4gETNV2AQM/cHhoDKMYnUOAtLJE0GqEM0JpFs4885sX1r2W5fFVnss7Rq2FyA7w59LWoX5uz2F2CRQcXY+WhVfijaDXWFq+D0+dCpacSdq8jJO9h9zpgL9+B7eU7TvmYLGsm2ma0Qbecruif3w/9GvRB+8x2XKItAtpltkWGJT3o53tVL1YXrY1wgPaJ6e1PZBLiPDybloU7K0pC1YEe031+uO7DEYA0stTRqWNmB7x17utokJQfddumShXLDq3AnD0/4df9v2FDyUao8sSVhFJrJuAOVYjWpcRdisUHl2LxwaV4be1/AVRPMNEvvy/6N+iLYc2Gom9+bxgEl7vVm9b1M9cUrYXL54poB61lBZbVRWvg9rt5IESOyWSUF3uBtzQHaM2yZdaj/12hk6Nvo9XAxgMwY/A0pJhSomabJCQWH1yCr3d8g+93zUFhgKdhwx2ixyurKscPu+fgh91z8MiSJ5BlzcTQpkNwfvNhOLf5MOTZcnnA6aBPnrYRuEsjfPpWawfNGYgiTwhciVAEKKpH3h4ZpTt19cvZbtXDyVKj0KWtL8YzA56KmsFCB50F+GTLZ/hky2fYVbk7qNeIdIge36XO3PIpZm75FIpQcEbD0zCm/V9weZvLkGnJ4AEYJR3ospifQJ4BGgU/+odiemo2JlYWaw3QY07ffrTxo4t4+jb6XNn2Cjx15mNRMZft2uJ1+O/6t/Hl9q/hU32aXy/VnAoJCYfXGTX1VqWKX/f/hl/3/4bb5/8fhjUbgivaXIbLWl+CJGMSD8ggmQ1mdMvpojGAYncCheofAByBGwVMJuAyL/B6IA8+6bduzenbY2YaKqkqPo+1jS5/7XAV/j3g8YiH5/x9v+KKb6/CBV9dis+2fh6S8DwszZyGlKNuUYkmHr8H3+yYjet/vBlt3uqEfy16CPsd+3lgBqFrdhdYDMFPbmb3OrCxZFOEO9A+mrZ/U+lmHghRQEg14DtNTvXNawX+HIY4v2C+1e2r6s/SRo9rO47Fo6c/FNHRoosOLsGob6/C2B+u1/UG8FRzatSG6GFF7mI8uew/aPt2F1z9/XVYdHAJD9Iwdm8rDq2EX/ojtv1WgxVdsjsH/fzlh1ZEdPvpqAYSGIw3jx3/E0yAHvH4788NkJBWljY6XNr6Yjx02j8jFp47KnbixjnjMXr21VgSpplTYiFEgepbET7Z8hkGfjoEZ316Dn7YPYcHbAA0z0AU4eufPfO6a5q8gwOIoqoHTTY6kgOaMPyEAD3Z6dv9zt2DWdToMLDxAPxnwJMRCU+H14nHlj6FYZ+PwJw9c8P+/rESooctPrgUF351GQZ/di7m7VvAg1fHDjTSA3D65vWJ6e2n4yJUVc4P5HEnGxRkAY79drZ7HAzQKNA1uwteHjxd01qDwVqwfyHuXXg/9tr3RbQG0TQ6N1ALD/yOYZ+PwDlNBqFdZlseyCfs0xTNdYn4DERap/DjAKIoS1A5HMBdwQToMadq75p/b0u/9LdgRSOrUXIjvDXsNSSHuQNzeB14aMljmLn5U0jIKPnCjb0QBYC5e3/B3L2/8GA+Tq/cnpomqih0FWFXxe6I/g1absEpdBVhd+VuHgjRpaN1urW5e6J7V20POuYU7skmT/it4Hd2nxFmNVjxyjnTkWPLCev7ri5agwu+uhQfb/4kasLz6BBNNvG2kXig9fRtpK8f5tpy0DIt+B5jCVdgiUp+1Vjnadzjr4Gacdzp21J36TksZWT9e8AT6JbTNWzvJyHx2to3MPKb0dhRsTNq6xLNt7hQ4LQOIFoe6eufGn8ALOcAoqgkgeH1DdBjBg8tKltkcfvcp7OUkXNL15twSasLw/Z+Vf4q3Dn/Hjy69El4VW/U1yfWBhZR/HWgfTTOoMQRuNFJCDkUU2EJOkAfWfDU6RLSxlJGxmkN+uGe3neF7f32Ow5g5DejMWvbFzFVJ4Zo7Mqz5aJpalNNr7Hi0MqI/g1aJlCQkFjONUCjNUKTjTLljIACVEppxHGDivZW7uHp2whJN6fjuYFPh20VkC1lWzHymyuxtnhdTNaLIZqY3efOil1BrRUbsq9YjSuw7KzYhSJ3MQ+EKKUYZK2ncY2n6j4BwOF1cu3PCH0o/3PWk2iU3Cgs77ey8A9c/+M4lFaVxXTdYnV0biLrrfn0bWQH4LTJaK1pUfalHEAU1SSUcwLqQHHc6NuPN36e6lW97VjC8Luu01ic22xoWN7rl33z8ZfZf4358GQnmpgdaOQnkOf9n/GdoLIHnspJrTVAa25fOebu/He2vt0HAFcRDrNW6S3xjz73hOW9FuxfiPE/TYi7RXwZorFBQIRgCr/IdnD9NA8gYgca5QzGZFe/ujrQE2YfOujY35e1Cy9FKPjPgCc1rUoRqN8O/I5xc26Ju/A8OkR5n2h0a5neQtPpT7/0Y1XhH5ENUA0zEPmlH6uK/uCBEP0/9c6sK0BPmAXZXuVkgIbZ9Z2u0TQgIVBbyrbi5rkT4jY8D+N9otFNa/e5oWRjRK93WwwWdM0Ofg3T9SUbomqtWzpFSErUGaDHtDzbSrYZq/yeHixd+DRJaYy7et6h+/uUuEtx45zxqPRUJkRdeTo3igM0X9uPxUjfP9k9p6ums0W8/zM2SOA0zDz55UxFSqnguNtXpix9tLOE5LdOGD12+kO6n3L0+D0Y99Mt2JVg824yRKOT5gE4EZ9AXttJumUM0FiRZipM7nqqDvSE07dbyrfx9G0YDWs2BIOanK37+zy85LGEvWmbIRpdDMKAHjndY7oD7Rvja5hSfdrQk18HVXCS+z/Lq8oZoGFiUky4r+/fdX+f/+34Fu9u/CCha80QjR6dsztpOuPi9ruxrnh9zHagbr8b60s28ECImQDFmQF3oG5/VR9WLDzGdxmHVmktdX2P7RU7cM/C+1hshmjU6KNxsNyqwtURnas5y5qJVunBf25XHvojJuaapsP5ibNOFaDHXP98YMFDTVXpb8iS6S/HloMJ3W/V9T18qh+3zbsLDs7Oc0yI8haXCAdofqzf/9kX4tg7/+q3/Yd4/2csEUAT24u2picL0GMsKlzUk+UKj0ndb0WSUd+5+qf98SJWF61hsY/DW1wiK/ZnINK4/ZyBKOb4/Yb+dQZoibu4E0ulv0bJjTCm3V90fY91xesxffUMFruWTpQhGn42ow2dsjpqDKBIrwEa2yOIKag2tFudAeryuzqyUvq7vcdEmA1m3V7fp/px14K/w6f6WGyGaFTpmdsdJsUU9PPLqsqxtWxbBL9HhaZT0CXuUmwr284DIcaoQNc6A7TK52WA6qxFWnNc3makru/x5oa3saF0I4vNEI06WmcgWnZoOSRkxLa/ZXoL5Fizg37+8kMrIrr9FOwPpzo60Pc2fZLmh78xS6Wv8V3GwajoN0//IWchXlg1nYVmiEZngMb4DET98vvG9PZT8L+dMDUr7ZQB+sX2zzsCGoaWUZ1ybDm4vM1lur7Hw0seS5ip+hiisUf7EmCRvv6pvYOm2GxCjYq389H/4phbWPZV7ucAIp1d3+kaXVdbWVW4Gv/b8S0LrSFEgfhalNtqsMJmtEbFtqRZ0jTdPwkA28q3I9OSEbG/oX+Dfpqev718x5Htz4jQ31FWVRY3awCHNUGrr4P+ftIAtXsrOrBE+kk2JWFshzG6vsejS5/g9ZUQhKiEjJuVMp4881H8rdv4uNk/q8Ys4fZr/SH/4814f9OH/LDXl5THDCQ65hSu2+/mACIdXdrqYqSb03V7/e93/8gFekPVKcXRfaK98nhrNx1rScFSFiE43U4aoE44hc/va8/66GdMe33v+5y26iUWOcSdaKyHqEEYNK1ZSfEn0rcBxXyAyj/HCR0J0IcWPt5MhUxlfXSqek5XdMnurNvrz9kzF2uK17LQDNFjdMhqz2kL6YTuk5d5gpZhe8nW5IQAXV28ht2nrt3naH27zz9eZJEZoifolcvTt3SsxQd5+lYLjxRdTwjQEndJS5ZGH0lGGy5ueaFur//7gUVYVbiahWaInqBnbnfuPDoGx0loo0il9QkB6va5mrA0+hjadAiSdfzyfXP9OywyQ/TkHSgHENFRJGTE76ON/SKKFicGqL+qGSujj4tb6dd97rPvw5w9c1lkhuiJv5SFgm45XbnT6Ijt5TtQ5C5mITTlpzwxQP2qnx2oDtLMaTi78Vm6vf7bG9+DX/pZ6DCHaCwMzGmf2Y4zK9ExlvD6p2YCaHlCgPpUX1OWJvTObz5Mt1VXfKofs7Z+ySJH6IdRtIcTBxDRCQHK65+h0OqYAH1x/WtZEjKFdQm985qfq9trz9s3H4WuQhY5gp1oNIdor7we3El0XICyAw2BdDyXkXEkQBft+Y3dpw7MBjNOb3Cabq//6dZZLDJDtJYAZQdKf6ryV2F1Ee8VDwWT2dviSIAedBRwAJEOTmvQT7drZXavnYOHGKKnpAgF3bI5gIj+9EfRGlT5q1iIEBBSaQnUTCZf7i5nB6qDwU0G6fbaP+35GR6/h0WOohCt/mETHau4WA1W/H3hfVFTn8fOeFjTCiqPLn0S64rXR2z7/9r+KlzQcnjQz//Hbw9gZ8XuiO6DPZV7+EENERXqnwHqhpsjcHUwqMlA3V77u10/sMAM0VNy+px4fd2bUVGXdHMaXhz8QtDPl5B46Y+XI3r7xY2drwv6uV7Vi5dWvwqXz8UPSdx0oNX3gioA4PF7eQo3xHJtuWiVps/kTm6/G7/sncciR2mIcu7ZY/XO6wXx5/zb9RbpexcFBHrn9Qr6+WuL1zE84y1AIVseCVCv6m3EkoRWv/w+ur32koPL4OQHMmrF01JooQlQbYOZFh+M7PqZ7TLbajr9vKxgBQ+COCOlaHYkQFVVzWNJQquvjgG6YP9CFjgGOlGGaDWto4Ejfe9iv/y+mp6/7BCnzovDFjQfAJRtJduMKtQMViR2OtAF+39lgRmiMdSB9tL0/EivHtI3v7em5y/l3LPxKAczYVA+3jYrG0fNSETa2Yw2dMjSZ3W4EncpNpZsYpEZojEhy5qJ5mnBD7Fw+90RX+dWy49hp8+JjaX8vMYhAw6mZCnbKrbksBah1SGzHQzCoMtrryhcycVwGaIx1X1qGUC04tCqiN6uZTVY0SW7s6bt96k+fgjikFkiXznoLMxlKUKrY1ZH3V575aFVLDBDNIYCNLYHEPXM665pLmte/4xfqoI8xeV1ZrIUoQ7QDrq99opCBihDNHZondA+0gOI+uZpG8vAEbjxSwFyFZevKoOlCHGAZrbX7bUjORsLhSZEE+k+Ue0daGQHEPVroDFA2YHGLSmRoXj8VeksRWi1yWijy+sWOA+h3FPOAse4RLlPNNeWg6apwc8SesBxEHvteyMboBpuYSlxl2JH+U4e8PEaoIrIUFTpT2UpQtthaLnpujaby7awwHF0nMR7iPbJ03b7R6Svf+bactAirbmm7pMD/uKXItUMxev3sgMNoWap+s3Lv7mUAcoQjR29NU+gEOHTtxrv5eb9n3HegQqRqfihprEUodM8Vb9phXdV7maBGaIxo1eMX//sk8/rn1RbgiJDkVBTWInY6ED32fexwAzRhOhA/dKPlREeca61A11xaCUP7jgmINIUVao2liJ08pPydXvtvQxQhmiMaJCUj4bJDYN+/pqitRFdFk5AoI+GKfz22vfigOMgD+y4bkClTZGAlaUInSyLfrfV7nccYIEZojGhj8b5YxdH+Ppn28w2XIGF6opQGzvQEMu2Zevyuj7Vh0pPJQucACEaD/eJal6B5WCMT6DA658JQCQpkgEa2gC1ZunyumVVZRwSnyDi4T7RmB+B24AzEFGdkhRIMEBDKFOnU7jlngoWN8E60VgOUS1LmJVVlWNL2dbIBqiGAUQSEisKOYAo7vtPIEmRkGaWIoQ/SUz6/B6pYIAyRGNE09SmyLMFv0bF4oIlUKUase23GCyaVmDZUroVZVWcMSzeScCsSK4FGlJWgz5jsqr8VSwuQzRGus/Yvv7ZM7c7LAZL0M9femgZD9zEYFQAGFiHULX0QtPSR7Xx+L0sMEM0JmhdgWVppFdgyef1TwqIgQEaQmaDWdPiwbXxqgxQhmhshKiWDlRCRjxA+3EGIgo0QHkKN7QBqpdIXhMihmigBISmW1i2lG5FsbsksgHaIPgVWLyqF6uL1vJgTQxGBZDsQGMg5PQMZ4qtEI3m+0RbpDXXdCtXpG9fybZmaVqBZW3xOrh8Lh6oidKBsgah41N9ur22hQFKNaL5PlEtt69UB2ikT9/21XQZhtc/E4sCCD/LEP0BalYYoHRsJxqNIRrrK7D0bcDrnxQwvyIAXlwLVTWlX7fTuEIIFpiiPkS1DCBy+VxYW7wuwh0o1wClwHsmBQA70BCHqB6q/B4Wl6I6RAUEeub2CPr5yw+tjOhocwGh6RS00+fExtJNPCgTqQNlgIaWUTHqFKCcSIGiO0TbZLRGhiU96OdH+vRtm4zWmgZArTi0StfLOBSFAcpTuKENT94HSokaotoHEEX4+ifv/6T68SkCgucGQ8SsmHR7bb2CmRiiodIrr4em50e6A+3HGYioXt/J8CgQ4E1LIetATTq+tpEFpoBCNFL3iWrpQA84DmC/Y39kA7SB1gFEnAM3kUjAqQihMEBDVlD91us0MUApQJG4T1QRCnrkdA/6+b8fWBzRmlkMFnTN7hL080vcpdhZsYsHX2JxKgoDNGQ8Oo6U1bI6BCVmJxrOEG2f2Q6p5pSgnx/pCRS653TVvAILF7xPuJbJqQjAzUKEhp4DfdLN6SwwRW2Iah1AtPjgkojWSsv8twCvfyYm4TIqUJwsRGioUoVP9elyvVLL7QEUv9pmtKlz9Kjb59b9NqiLW12oOYA7ZnWIWB1Htr5U0/MbJjfAuM7XR81x8faG9zhyX+/4hHCKDu90+8rpc17EcoTGur+uRIopJeSv61W9aPN2JxaYjnFfn79jfNdxLAQdsadyD1rzuyIcPlKMQqlgHUKnrKpcl9c1KSZ2oXSCztn8oqRjzd07j0UIB4lSxWgwlLMSoVNaVarbazdKbsQC0zE6ZXVkEegYv+ydzyKEgRCyTDEIUyVLETolbv0CtHEKA5T+1DC5AbKsmSwEHWP+/l9ZhDBQoZQpJsXCU7ghVFZVpttrN0lpzAITu086pe3lO7Cncg8LEZYOFGWKzWgpYylCp8BZoNtrt0pvxQITA5RO6Zd9PH0btgCFLFOSjMklLEXo7LXrNx1Zu4y2LDAd0TmLA4joWPP2LWARwkT1o1BpYMsrZClCGaB7GaAUng40mx0oHRegexmg4aIYcEhpm9OuiKUInT2V+gVoljUTDZLyWWRCiikFzVKbshB0xJayrRGfkD+ReEyiQPlrh9HF4JqgoQtQ+16oUr9y9sjtziITOmV14BJ3dAzevhJWfhyoLFEa2xr7FaGUsh6h4fK5sNe+T7fX75nbg0UmdOL1TzoOr3+GjwAKMQWqAgCKUHgdNIQ2lm5igJKuOvP6Jx1FQmI+AzR89ZY4BAAKAJiEaR9LEjqbSjfr9tq98nogyWhjkRO+A2WA0rHfOQd1vIWOjgtQRe4CACMAmI2mPS4/lwWNhQA1KSb0ye+N+fs420gi+8t3Y6FU//7Vjd1bCYf31Is1jWp7OaYPej7o17/6++swZ/dPEavhnJGzNS2i/Z8Vz+Pp5c9ExfHAlVfCS0ix80iAWmHdWw5OSBQqfxSt1vX1z2x4BgM0wVV6wjMDp1f1wu51nPS/aV1+bP6+BSjVceau2tiMNnTIbK/pNebtnR+x7aeI96A7gJpTuOmW9N0sSOjsrtyDQpd+l5XPaTqIRaawqG1R7rrWIa3NrordKHAeitjf1Su3B0yKKfivT0gsPbSMB0iidqBC2XkkQBuk5HPyxBBbcWilbq/dLqMtWqW3ZJEpYiFqNpjRPadr0K8Z6fDp16CvpudvLt2i68IRFOX9p1D/7EAHNB3IDjTElheu1PX1z2s2jEWmiIVot+yusBgsQb/esoIVkQ1QDd0zACw6uIQHRQLzekx/dqDjO11fKiDsLEvoLDm4VNfXH97iPBaZwh6iyaYkAEDf/N6aXmtpQYQ7UI0BupgBmshKcUdZ2ZEABQCjYuRp3BBaXbQWZVX6rVXePacbWnN1FgqzNHMaUkzJ6JPfK+jX8Es/Vhauitjf0DC5AZpqnAaRHWhC23n4//wZoMLAAA0hv/Rj4YHfdH2PkW0uZaEpIp1o//x+QT9/fcmGU47sDYe+GrvPSo8dG0o28kBIUBLYcUKAWowWBmiI6T211sjWl0IRCgtNYQ/QNhmtg37+0oLlEd3+fvnaBhAtKVgKv/TzQEhQQogTA9RqtDFAQ2z+vgWQkLq9fqPkhhjc5GwWmsKqe05XTT/cYv/651IeBIlMlTtPCNBsS/YOVia0DjgOYlWhvpMqXNfxGhaawqpHjrYVgSLZgSpCQa+8nhoDlNc/Ezo/hbrthADtldWTJ/V18O3O73R9/bMan8nBRBRW3XKDv//T6XNifcmGiG17p6yOSDOnBv18CRnxDpoiy2yUq08I0PvOunuvAsH5/EIeoLN1PY0rIHBj5+tZaIqJDnTFoVXwqb6IbbvW07dby7ahyF3MgyBxlbhude07IUCTkCRNimkT6xNae+37sLpoja7vMarNSDRIymexSXcNkxsgPykv6OdH/PqnxhmIFh1czIMgsR1zTe6YkQBWo2U96xN6s7Z+qe8pBYMZN3cZx0KT7rrndNP0/GWHYnsGIg4gSnhrThmgKeZ0XgfVwRfbv4TH79H1Pca0H428pFwWm6I6QCPZgaaaUzSvIMMJFBKcFKcO0CapTdiB6qCsqhw/7J6j63vYjDbc3mMyi0266pkb/PXPQlcRdlbsiti2987rBYMwBP18hzeyA6AoCiji1KdwL28xciOg44iXBPbJls90f4/RbUdxRC7p+N2hoGtO8AtQL4nx+z+XFCyN6AAoijjVKyzrThmgoztcVmkQyl7WKfTm7/8VOyp26voeRsWAe/vczWKTLtqkt0aKKSXo5y+P8RmIePo24e3AhEL7KQMUAMyKmeco9PjpIlW8uf4d3d/n3GZDueA26aJHrtbrn5ENUK0ryCxhgCY0edwI3JMGaLLFxuugOpm55VNdV2g5bEr/f2paq5HoZLppGEAkIbGhNHK/zZumNkXD5Iaatn8JJ1BIaEogAZppyuZIXJ24fC7M3PKJ7u/TPLUZJnS7hQWnqOlAd1Xshlf1HVlPNNy0Xv/cVrYdha4iHgSJ3YKurTNAz8o/bTkrpZ/X1v0Xbr9b9/eZ0O1WdM3uwoJTSFgMFnTIbB/08/8oqv7xfng90VgL0MUFPH2b6AzwL6ozQB8888F9Cgz7WS59HHIWYubmT3V/H6NiwNMDnoBJMbHopFnn7E6ajqXDAQpUL4cW7hDVPAPRAQZoYhO7XJNde+sMUACwGiw82a+jl9a8ovvECgDQMasDbusxkQUnzXponEBhZeEfx/xzOEPUqBg1ryCzuIAzECU2ufBk//akAZphy+DPLR0dcBzER2G4FgoAE7rdgjMans6ik7YA1TCBgk/1YX3xiQOIwhWiXbO7aLr26vA6sbZ4HQ+CxBZ4gLbPaMOfWzp7YdV0OLwO3d9HEQqmnf0sp/kjTbRM4behdOMpr/uHI0S1Xv9cdmg5J1BIcMIgfw04QB8b8PB6AWFn2fRT5CrCK2tfD8t75dhy8NxZ/4FRMbDwVG8ZlnQ0T2sW9PPrWlRe7xDt10BbgHIChYRX4clxrAs4QBvbGvstinkV66avV9a8jv2O8IzXGtDoDNzX514WneqtR053CIign7+6aHWdj9EzRLXOQLSYAZrY3acUv+FK+AMO0OoDOplHjc7cfjeeWfFC2N7vxs7XYXS7USw81Ut3jTMQ1dWBHh2iob5PNMOSjrYZbTS9xlJOoJDQ1FMMIKo1QBskN+Z10DD4bOvnWHYofLfePnb6QxjYeAALT4EHqIbrnw6vA9vKtwf8+FDfJ9o3vw8UoQT9/O3lO1DgPMSDIJFJ1D9Ax7YbuwI4edtKodw3Ev9Y+M+wDVIwKSa8NmQGzmx4BotPAQZo16Cfu7poDfyyfl8joTydq3UA0aKDi3kAJDafz2hbWu8AHd3hskqTMG1i/fS3uWxL2AYUAYDVYMUbQ1/GaQ36s/hUqyYpjZFjywn6+auKVgf1vFCFaF/N1z95Ii6xOxyx8vgVWAIKUABINiUtZAXDY+qqF7GrcnfY3s9mtOGdc9/Auc2Gsvh0Sj1ze2h6/qrjJlAId4j2ye+lsQPlUJBEJoT6c23/vdYAbZrabC5LGB5uvxt3zL+73qe7tLAYLHj5nOkY0/4v3AF0UlpO3wLHTuEX7hBtld4Sebbg7392+VycQCHBqRCzgw7QRwb+83cB4WAZw2P5oRWYsebVsL6nQRjwxBmPYEr/f2oabEFxGqAaZiA65CzEAcdBzdsQ7OhcrbevLDu0Al7Vy4MgYdtPVPqK7b/VFaCnHL3SM6Onx2a0/M5Khs9zK1/Q/Ks9GNd3ugZvDn0VqeZU7gQ68uOqS3bnoJ+/smhVyLYlmNG52gcQ8fRtIpMSczAFnroCtNYHZFiyf2Ypw8en+nHngnvg9LnC/t6DmpyNLy/8FB2zOnBH6MSoGGNmW9tltkWS0Rb081cXrgnp9tS3E9W6AgsnUEjwBlSI7+p6jAKgqrYHDG408CeWMry2lm3D33+9LyLv3Tq9Fb668DPc0OlaTbPP0LGSjDbc2vVmPHXmYzGzzVpXMFlV9EfItynQTtRisGi+fruEI3ATmgHe7wMJ0Fo70McHPLzboBh2sJzh9dWO/+Gdje9H5L3NBjMe7P8A3hz2KholN+TO0MCkmHBdx2vw66ifcW+fu2PqFHn33OADSEJiddFaXbYrkIFF3XO6wmKwBP0eOyt24aCzgAdw4lrnnujeVWeACiFUALVeKU8xJvM0bgQ8suTxgKdB08PgJoPw42Xf4q8drmI3Wt9fr8KAS1tfjLkjv8dDp/0T2dbsmmSRCdGBbi/fgQpPhW7bVleIal5AmxMoJLYATt8e7kCBOk7jNkltwttZIsDj9+Dmubdiv+NAxLYhxZSCx05/GF9fPAt98npzp9TBYrDg8jaXYc5ls/HCwGfQLLXpcZ1ZbLAZbWib0Tbo568sXKX7NtYWoloHEHEChcQmoc4OWYDe2/+u3wSEm2UNvwLnIdz0060RGVR0tK7ZXfDpBR/iuYFPo3FKY+6Y4+TacnF37zuxZPRCPHvWv9EqveXJP5gx0oF2y+miafm7P4rWhGU7TxWiWm9h4QjchI5Ph091/FqfAPXW9uN4YP5At9VoWcTCRsba4nW4fd5dUKUa2bMaEBjZ+lLMu/xHPHL6FDRIyk/o/SIg0L9BXzxz1lP4bdQvmNjtVmRY0uv4ZRsbAdpd4wCiP8J46eH4EM22ZqFleougX8/td2NN8VpQgsanwFxMrr2pPCZAhRASdQwmyrbkfMfSRs73u3/EQ4sfi4ovYJNiwjUdrsb8K37Ck2c+qnm5qFjTPLUZ7ux5GxZcMRczh3+AK9qMhNlgDuzDGTMBGvwAIo/fgw2lG8O6vUeHaP8GfTVds19+aCU8fg+/dBL1h7GqfBHoY4++Ka0KwCmHrY3pMuZ//1789KOANLLEkfHWhncgBPBg/weiYlCPxWDBVe1G4y/trsS8fQvw/sYPMXfvL2FbWSacGiU3xJCmg3FJq4vQJ7930PWPlVO4PTTMQLSuZENEAujwCGetE8gvOsDTtwnM6/WJoALUDSDtVA+c0OmmkqnLpv7m9rsHssaR8+b6d+CXKh4+7V9RMzJWQGBQ44EY1HggilxF+Hzbl/hy+/9i+jSYQRjQI7c7hjQdjHOaDArZ5BKx0IFmW7PQRMN17j90uP+zPiF6RkNtqwxxBG4Cd5+QP+DOipJ6B6gQwi+l9B0XqsfIS8r/anflLgZohL2z4T34VB8ePX0KDMIQVduWY8vBTV1uxE1dbsRe+z58t+sHzNkzF8sPrYjq02ImxYQu2Z3QI7c7euX1xICGZyLLmpmQx5eW7hMA/ihcE7FtFxDolddT02ssKVjGL5kEJSVm1ufxx4elG0DKqR58Y7cbv5my8MEnJKSJpY6sDzZ9hGJXMaYOehZWgzUqt7FJSmOM63w9xnW+Hm6/G0sLlmPRgcVYVfQHVhet1fU+wdokm5LQMq0lWqW1RLfcruiV2wNdsjtruvE+njpQzTMQFUauA22V3hLp5vSgn7+7cjcORPC2MYqoKq/F/CUQ+PopxwdoVW0Bel27q8qfXPzEApfPdQ5rHXnf7/4RV393Hd4Y+kqdoz8jzWqw4qxGZ+KsRmceCZKdFbuwpWwrdpTvxPaKHdhn34cC5yEUuYtQ4i4NOhyzrFnIsWYjw5KJLGsmsq3ZaJHWHK3SWqBlesuIjh6OhUug3XO7Bf3cCk8FdlTsjNi2a12/lLevJHT3+R3Gl5YH3YEKITxSShW1LHOWZ8v/elflTgZolFh2aDlGfnMlXh/6MlqltYyZ7RYQaJnWAi3TWpzyMeWecnj8Hrh87hOem2Y5cUo8m8EW8GjYCH5Mo37fZFjSsbtyT1DPXVm4KqJdduOURidsuyrVgLdp7p5f+KWSoBQhZ9b3OeLEFJbpAE655MF7mz5Je+C3+1dLSDNLHj2STcl4buDTOK/ZMBYjin2x7SvcNv8uFiLMKj2VsHu5tDGdktsrzfmYXFKv60on6zRrvYH0r+1HVViMlnmsd3RxeB0Y/9MEPLns6YhPuEC19Z+SRYiAYBflpkT5XOKb+oZnbQFa66e8UVKDr1jy6PxynrHmVVw/52YUuYpYEAYoHSWYRbkpMSgCM4N63vH/omZWolrnvb2l899+4Ny40euXvfNw7hcX4Kc9XEQn6gJUMkAj3YkyROm4T6XD40r+JiQBWqPWmctHd7isMsmc9C0LH72K3SW4cc54PLjokYhPRE/sQBmiFMVm4u6CoC6QnzRAhRBVAGq9kNYhtcP7rHv0f1m/teEdDPt8OObtW8CCREUHyhowRCmqPpOq8nqwz1Vq+W+1nqKddfFHvxuFcQvLH/322vfhmh9uwO3z/w/F7hIWhB0oMUSp2kbf5Mrfwx6gAJBtzvqY9Y8dn2/7EoM+G4bX1v0XXtXLgkRAaZATRBBDlHQg5CsQwf+qPWWABnIa99oe130kILjuTwyp8FTg0SVPYOjnw/HNztksSBioUsVPe37G1d9fi8eXPcWCMEQpOni8qtB0KbLW5TzqmlQBADq+2/1Vp895IfdFbOqd1wu39ZiIsxufxWKEmNPnwqdbPsMb69/CzopdLEgM/Lh0eJ0sROL40DvJPkbPADUByKntMRd+NfLsNcVrPuS+iG09c3vg9p6TMKgxF9vRalv5dszc8ik+2jwTZVXlLEgM4YxFiUMCQ3yT7HN1C9CaEM0BcMrVV5xwii5v91roV/0tuEtiX6v0lrimw1/xl3ajYDPaWJAA2b12/LB7Dj7b+jkW7v+dg4UYohTdtnuL7W0xBZqmbQskQJNRy0LbAND7w9NvL3IX3cN9Ej+yrVm4qt1oXNV+tKbFleOZT/XhtwOL8Nm2z/Hdzh/g9nNuEYYoxUT3KcR9vomVT2h9nUACVAGQV9tjH1/6dP4ra19bCkgjd0386ZrdBWPaj8YlrS5CcoIPtnD5XPjtwCJ8s3M2ftz9U8TWNCWGKAX/29cEtblzknO/7gFaE6KZAGpdtbnDO93ecPldw7lv4pfNaMPgJmfjvGbDMLjp2ZoWLo4l28t3YOGB3/Hj7jn47cAi3gLEEKVY7j6Bz3yT7FeE4rUCDVArgMzaHnPld2P7Lj6w6EvunsRgVIw4rUE/DG4yCGc0PA0dMttDEUocfLgkNpduweKDS7C4YCkWH1yKQlchdzhDlIWIlwAV4gzfxOAnT6h3gNaEaD5qn3gBbd/u9LVH9fbmLko8mZYM9G/QD/0b9EPX7M7olNUp6peP8qk+bCvfjo2lm7GhZAM2lm7GH0V/oISTHdBxeItL3LSfv3on20N2z159AjQVQEptjxn22YgLN1dseZV7iQzCgFbpLdEpqyPapLdGi/TmaJHaHC3TWiDVnBq27XD6XNhn34d9jv3Yb9+P/Y4D2GPfi82lW7ClbCtPxxI70QQiIC7zTKr8IhIBqgDIr+0x+1z7DGfNHLKAt7RQbZKMNuTacpFry0W2NQvZtmyYFBOSjDbYjDaYDebDx1xAg3Sq/FWwex2we+2o8FTA7rWj0mNHsbuY92ESQ5QO2+IttnfQeuvK0QIeNSuEUKWUbtQymKixrbE/Pyn/9f32/Y9yX1FtXeGuyt3YVbmbxaCYcvjsCUM0Jj0byvAE6rimeRJ1HjWP9v/Xh4pQeBGJiOI2RDl3bswp9rqT3w31i9YrQIUQHgC1XjQa0myIK9Oc/i73FxExRCkaCGB6sItmh7IDBYA6h6KN6XD1G0KKKu42ImKIUoS5PX45Q48XDiZAXUDtE33+X6/bClPMSZ9zvxFRvIdotN+uxfYTb+N2R0FUBKgQQgbShZ7V5KxXgNBesCUiijZp5jR2otHLr/jEc3q9eLBTxzjq6kJnDJq2KcmQ9D/uPyJKhE6UIRqV7eeHVbdXboqqABVC+AHUufTE+S3P+zcgfNyJRMQQpbB3n37oekullslL7XU94Lmz/r09xZT8BfcjETFEKbzkW3p2n5oCVAjhA1DnSNsRTYc/KyA4XxoRMUQpXLwGGB/T+020Lp9RZxf69NmP70wxJX/K/UlEDFEKT/OJ192TyndEdYDWTKzgqetxo1pe+qyA8HCvEhFDlHTmNsL/eDjeKBQLONY5u8ODZz64L82c8iH3KxElWojyPtGwe8U12bU3JgJUCOFGHdP7AcBf2l31vIBwc98SUSLhfaJh5TJB/Xe43kwJ0etU1vWA+/reXZBuTuMcuUSUkJ0oQ1R/AnKac5Jzf0wFqBCiKpAudGzHsdMFBNcBIiKGKIVahcesPB3ON1RC+Fp1dqH/1+u2whxrzjTuZyJiiFIoSchHML6yKCYDNNAu9LXhL75sEIad3N1ExBClENnmk46wN2dKiF+vzi60Z0ZPT5u01o9xfxMRQ5RCEmRS3IHJCPsSmiLkbbSU2QDMdT2u/dtdPnarVWdx1xNRoqrwVMDhdbIQ2sz1TrIPiUhw63FMBPKgsxoNeAiAn/ueiBIVb3HRzC8gb49Y5xvyllYILwJYqeX1YS+vTzNxcgUiSmw8navJDM8kx5q4CdAalYE86KZu459SICp4DBARQ5QhWk+lXrN4KJIboEuA1qzUUueJ/cndbinOTcp7nscBETFEGaL19GC4b1sJVwd6uAuVdT3orXNffcMgDNt5LBARQ5QhGqANXrP95UhvhG4BKoRQEcByZ50yO3k7ZLX/F48HIiKGaACklHIyxiPi60wrOr++AwGMtP324i/nJpuSP+dxQUTEEK29O5Nv+yY75kTDpugaoEIIiQBva5nQa8I/DVCKeHQQETFET957osirinuiZXP07kAPL3dW52LaEzrdVNIsvdnDPEKIiBiiJ80TBZMw2V4YNdsTlh8NUhoB5Aby2I7vdn3b6XMP46FCRFSt0lMJuzexF7ISELM9kypHRNM2KWH5w6tvawlo749qfdn9XPKMiIid6FFtmEOBMiHatkoJ43tVAlDretDDZzy8Nz85/2l+ZIiIGKLV+SnudU8q35GwAVozoCigGYq+veiL182KaTk/MkREx4Zosikp0dJzsbeBfUY0blk4O1AIIZwIYEBRti1bHdTw7HsEhJcfGSKiPyXYBPQeIcSNuDI6Fx5RIvCe5QhghqLXzp2xITsp40V+XIiITuxEEyFEBfCEZ6J9XbRuX9gDtGZAkT2Qx84c9uGzZsW0gh8XIqIEC1EhlnvM9seieROVyNRF2IG6p2FqndXad2nbSycKCDs/LkREiRKi0qEAY6Jhur6oC9Aa5YE86OkzHt/ZJKUJJ1ggIkqUEJXK5KqJlZujvkmOaI2kTAMQ0J7v+G73V5w+50X8uBARnSheJluQwOe+SfaRsbCtSqT3ORDY6Kq/97/3HgWG/fyYEBGdvBON9VtcJLDPJ8RNsbK9EQ3QmntDywJ57HXtrirvktv5TgQwGQMRUSKK8VtcVAh5LSZWFjNAAw9RDwKc5u/rCz+bn2nOeI0fEyKiU3eisRiiAvI/vomOn2Jpm5Uo2Y5KAL5AHvjmBa8+YRKmdfyYEBHFTYiu8BQ7/hlrdY6KAK3PqdyeGT09w1oMmSgg3PyYEBHFeohKh4C4GlPqnqWOAXrqEPUiwAkWZgyatqllWov/40eEiCjGQ1RggmdS5cZYrK8SVXUUohII7MbZny//YVa6Je0tfkSIiGoP0SgenfuCd6Lj7VitrRKF21SGAObKBYCPhr/7oMVgXsyPCBHRqUXp6NzfvcX2e2K5rlEXoDVz5QY0S1GnzE7eG7veOF6BUsCPCBFR7Z1otISoAA6aoF4Ri9c9o70DhRDCBcAVyGP/3vPOQ/0a9L+JS58REcVEiHpVKa50TnLG/MQ4ShRvWzkCvLXl4+HvLGuQ0uBRfjyIiKI8RAXu8E2uXBAPtRTRvHFSSiOAnEC3s/P7PV+we+yj+BEhIqpdhObO/cA7yX51vNQwmjvQw9dDKwJ9/IyhL/zdpJjW8qNBRBRlnajEaq/ZflM81VCJ9g0UQjgR4PXQgfkD3Ze0vHi8AlHOjwcRUd0hGqZbXIoNRsNlGA9nPNVPxMJGSikFgGwApkAef8XsMf2XHVz2sYQ08yNCRFQ7nU/neqSK83232X+Ot7opsbCRNVP9lSLAlVg+Hf7B4tYZrW5DgPeTEhEleieq0+lcKSBvjMfwjJkArQlRPwKcLxcAfrrsuy9zbNnP8KNBRBSZEJVC3O+Z5HgvXmsmYm2DpZSpAFICfXzX93s9VeGpHMuPBxFR3UJ3Ole+4Z3kGBfPtVJibYNr5sutCvTxH4947wGrwTqfHwsiojB1ogI/e4sdf4v3Wikxut1lCHCShU6ZnbwP93v4JhNMG/jRICIKLEQ1jM5d5/UaR8b6NH1xG6BCCBVACQIcVDS6w2WV47pec7UiDAf40SAiqlswE9AL4IBR9Y/AHWVliVAjEcsbL6U0A8gK9O+47scbu/6yd8EsCZnMjwcRUd3qcU3UDqkO9E52rkyU2iixvPFCCA8CXLkFAN4a9saabjndbhBSVPFjQURUtwCviXqkIkclUnjGfIDWhKgLgD3Qx3910acLOmZ1uIWrtxARhSREvYoUV/gmOL5LtLoo8fBH1IzMdQX6+NmXfvV9u/S2fwPg50eDiCjoEPULgWuqJld+nYg1UeLobykHAh/19cPIb75pkdb8LgQ4EImIiCF6zOhcCSlu9Uy0f5So9YibAD1quj9foM+Zd/mcmY2SG/+THwsiosCkmdOQZEyClPJu7+TK1xK5FvHUgR59e0vAp2Z/v/KXN3NtOU/xY0FEVDcpJaQQ//RNdiT8VKlKvP1BNXPmBnyPKAAs+8vvL2SbM6bxo0FEVHt42j32JytuKXiU1Yjx+0Dr2NEmVC+BFvDf2OODvv8qrSq7hYcFEdGJKr32GaXjD/6NlYjTDvSoTtSLeqzeAgC/jZn3SLo57b88LIiIjuXyuV4qvfngBFYiATrQozpRK4DM+jynz8en3VXoLL6LhwcREeBVvc8eGLeL34mJ0oEe1Ym6UY/ZigBg2ehFz+Ql5T3Gw4OIEp1fyscZngkaoDUh6qxviC4dvfDFxilN/gHeJ0pEiUkahfEf+27cdj9LcYpsSaijQcpkAGn1ec7gz4Zdvr1i13OANPJwIaJEaTytiu22zdeteZGlYIBqCtGhs4ZfvLV82zQJaeIhQ0RxHgu+JJN1wsaxa15lLWqnJNyhIYQD9Zh8HgDmjJz9VYesTuO4igsRxXdHJTzpxrRrGZ7sQOvqRFMApNbnORd+NfLstcVr3pBAEg8dIoqz8HRkJ2dftWL0oq9ZDXagdXWidgAV9XnO/y6eNW9Y86EXKcJwgIcOEcULg1AKmic3HcHwZIDWJ0QdqOfo3NfOmbFhfJfrLjAJ0zoePkQU64yKcWO/3J6D54+eO5/VqG/XTpBS2gBk1Oc5n234X8r9y+572eVzncMKElEssiqWBSO6XDL6+T6P86waAzS8IbqtZJvx0m9HPVrhrbyGFSSiWJJqSv7owTPuv+XK1leWsxoM0FCEqLUmROtVl9NmDhx3wHFgChL8lDgRxcZXXW5S9rPLRi/6pxDCxXIwQEMZomZUz51brzAcNmvERVvKtk6VQlpYRSKKzi984WmR2uyOX66Y84YQvC1PK3ZMxx9gQngAFKMei3IDwI8jv/26f8PTRilQSlhFIoq6L3shyrrld7/ylyvmvM7wZIDqGaK+mhD11ud5Hw9/Z9kV7S+/0ATTBlaRiKKFSZjWX9TswvO+GvHJNzVNAoWko6dTklIqqD6da67P8xaVLbKM++aWJys9jtGsIhFFUrIp+fMnznnotksaXbJfCOFnRRig4QxRgeqBRdb6PnfAJ+f8da9972OcQ5eIIvD17stLyn1q6eiFzwIoFUJI1iS0eAq3rkNQCCmEKEU9588FgF9HzX2vb6O+owxCKWAliShcDFCKemb1uGrp6IVPCyFKGJ4M0EgHaSWAMgD1OhA/Oe/9Jbf2GHe+2WBaxioSkd4sinnJuC7jhn1xyczvhBC8x1PPXGAJ6ifY21y2lWwzXjH7L38v8ZRNYBWJSA9pppT3Phzx7n1dsroUCiHcrAgDNBpD1AAgC0C9F9ke9NnQUTsrdj8lIa2sJBGF6Ivc2Sq91d1zR37/KYCSmjsJSGc8hRvMwVo9kq0IQL3vpfrl8jmfXNh6xHkmxbSWlSQirYyKceOwxkMvmjvy+48AFDE82YHGUjda73VFAWB96XrTNT/cMLnQWXwHf8gQUTBfPxmW9P9+OPydhztldirn9U4GaKyGqAXVt7rUOwgv+WbUgNWH1kxV4W/AShJRIAxCOdQxp+Md31z4xVwA5ZzTlgEa6yFqRPXgonpfF31v0ydpjy959CmHz3kJK0lEtbEZbd/e0fuOu8d3ur4QQJkQwsuqMEDjIUQFgHQAtmCeXzPA6HEJmcxqEtGxX9bC3SC5weOLrpz/OgB3TeepsjKRw2tvoTzAqyddKEMQ94sC1QOMxrT9yxDeM0pERzMr5lWXtx45pCY8K4UQpQxPdqDx3I0GfUp3fel609jvr7+92FU6kdMAEiV01+nNScqa+s65/53aKbOTG9WnbDkZPAM0IUJUoHqEblCnZMf/NKHD3H0/P+3xe3uzmkSJ1nWalg9tPuT/Zgyatgk8ZcsATeAgtaL62mi9T5kXu4qVS/43asxe+95/ScgUVpMo7rtOV25S7rNfXDzz5ca2xj5Un7J1sDIM0EQOUSOqb3UJ6pTs06uezn9jzbtPuHyu81lNovhkM9h+urLNpf94+IyH96J6PeIyTozAAKU/gzQFQEqwtR82a8RFWyu2Pa5KNZvVJIoPBihFzdKaPvLL5XM+qflXjprOk6uoMEDpuBA11XSjxmCe/9bmD9OfWfLv+yu89qu5D4liW5Ix6euJvSf+Y0Knm0oA+FF9rbOKlWGA0qlDVNR0okFf17zg68sGbSzZ8IhP9bdmRYlii1EYt3TO7vzAVxd9uqDmX3GgEAOU6hmkZlQPMAqqG11fut5085yJo/fZ992rQs1iRYmimwJRnpOUO/3tc197tVNmJy8AtSY4ufwYA5Qi0Y2+vvbdjGmrX7irrKriWkAaWVWiqKOmmFJmjet+48N3dJ1YxK6TAUqhDVJN10YBYPK8O9v8sHvOFJfPdQ4rShQdrAbLrwObnPXga+fM2FDzr3itkwFKOgVpMqonYAh6/4z48tJhG8s2PuRX/S1YUaLIMAjDztZprZ74ceS3Xx/1rznClgFKOoeoAdXXRi3Bvsb60vWmG3685doCx8H/UyHTWFWisH2xOnOSsme8dt6MaT0zeh6ees9T03Xyvk4GKIUpSG0A0qBh4v9X1r+Z+fLKl/5W6im/QULaWFUivb5QhSvdkvbB2A5jp/5fr9sKa/61WtNxOlkhBiiFP0QPDzJK1rLPpq5+OfvNNW/cUuopv1FCWllZopAFpzfVlPzxVe3HPHNf37sLjvpPLgAVHCTEAKXIB6mxphu1aHmdxxc93vDj7bP+Vl5VMVZCmllZIo3B2WbUc/eddt+Bo/6TtyY4uXIKA5SiLEitNUFq0PI6Dy18qPGnO764rcLr+AtvfSGqFzXJmPTNhc0ueOLpsx/fedS/9wOw83QtA5SiO0QFqk/ppmjdjw8seKjpl7u+mFThtV+lNZSJEiE4z29x3lPPnfXv7Ud/JAHYATg4upYBSrETpAqqb3lJ0vpak+fd2ebnPT+Pr/Q4rpBCWlhdopovSimqUs3JnwxpMuSV5wf9Z9tx/9mF6kFCflaKAUqxGaSGmiDVPMp26uqXs9/Z8NZ1xc7S6zk9ICUyBUpJhjntwzGdr3z97h7HDA4CgKqa4PSyUgxQio8gNaH6+qjmwUEry1aa7/jp7kv22PdN8qm+NqwuJQqDMOzKS8p747HTHnx/SLMhruP+s6cmODlAiAFKcRqk5pqOVHOQFruKlbE/3DhkW9nWcW616ixWl+KVSTGtbpLS6I33R7w9q7Gt8fGnZH01wclJ34kBmiBBaqkJUlMoXm/07Gv6rC5aNd7pc5/HkbsUJ1+DviSj9fvu+T1f/ujct5ef5AEMTmKAMkhDF6RPrXw279PNn40qdhdfzfl2KRYpMOzPMKd+fmmLC9968MwH953kIV5Uj6p1sVrEAKXDQZqCEJzaBQAnnOLa72/qu7Fw/RWVXscVnOGIovsLT3hsRtv3bTPavvfRRe/8moSkk91y4kH1vZxcKYUYoHTSIDWj+j7SkAXee5s+SXt59YyLD9oPXu+FtyOrTNHCqBi2ZVmzPxrbcexHk7vdUnyKhzE4iQFK9QpSQ02QJoXyeBj1/dX91hetv9rhcVzICewpQl9uzhRz8teds7q9//Hwd5bV8tCqmuDkqFpigFJQQaocFaRKqF53fsF865OLnj1rV+Wuixxe+wgZggkfiE75hSZFlc1kmZ+flP+/SZ1un315xwvtp3ioCsAJwMkJEIgBSqEKUoHq07rJCNGAo8N+2v2T7ZmV0wbsqNhxhcvnOo8T2VNovsSEx2a0zMtPyv/frZ0nfDe6w2WVtTzcj+oFrZ2cco8YoKRnmJprOlJrqI+V9zZ9kvb62lfOK3AWXOjyVQ2SkCZWnOrBb1HMK7Js2V+P7TJ21oRON5XU8Xh3TWjy+iYxQCmsQarUBGkSdJhs/vW172a8vfHtEUWugvNcvqoBvGZKp/iyclqM1oV51vzvru147exxXcaW1RWyqD5N6+JpWmKAUjSEqQXV8+1a9Th+tpVsM9679F+9thZtHlbpc5zlVb1deZwmLoMw7Eo22hY0TW3+42NnPzivZ0bPQAb6VNV0m5z4gBigFLVdqbUmTHW7lvnUymfzZm//9uwCZ+FQt891tgqZxurH8xeScFkU87JMW9aP5zYZ9N3DZzy8N8Cn+vDnaVp2m8QApZgJU1NNkNoQwhG8x1tfut70jwUP9t/t2DGo0uMc4FV9nTidYMx/BfnMBtO6FINtYfOUVj8/PnDKkk6ZnQJd3URF9VJiLq6IQgxQiocwtdR0plY9wxQAZm+dm/TfbW902Vm2s6/dU9HP7avqp0Kmcy9EdYfpMCum9cnGpCUNUxovGdPh6sV/bT+qoj6HWE2n6eKAIGKAUjyHqfmozlT3Y22fa5/h0cVPtllTuK5vaVVpP7ff3c2n+tpxT0SOQSgFFoN1SbolfWnT9KarH+p3/8p6dJhHh6anptt08/YTYoBSIgWpAGCp+Z/unenRHln8SKP5e3/vVeIt7ujwujp6/J6OfulvxmM/9LvZIAy7zQbzhmSTbUOWKXvD4MYDlt932n0Hgnw9FdWDgdwAqhiaxAAlwpFrpodP84b9Gub60vWmaX/MaLWheEO30qqybm6vu51X9Xb0Q83h3qmbAlFhUkybLAbzpmRz6uam6U1Xj21zzbqLW5/n0PjSvprQrALgYWgSA5So9jA11ASpBdWjeSN2TD6y+JFGvxcs61BaVdbC5XU2c/uqmvpUXzO/9DVNtNG/CkSFQTHuNgrjHqvBsttmTtqTZcvccVpu703/7P/P/aHa/ag+NVuF6lOzHD1LDFCiIMNUoHr6wMOne6NmdqL3Nn2S9tOuH5rtdxxoWuYtb+byOpt6VU9Tr+pvokp/tl+q2dBhkgmd+A1CKVaEodikGPaaFPMemylpd4YpfU+TtEa7BzcZtqeeA3vqw3tUaLLLJAYokU6BqtR0pYe706i9ZcUJp3hlzX+zNx7akFNgL8y2+yuzXb6qdI+sSvP5PBk++NN8fn+6FGqaVKXRDzUNKkyqUJMAaasZvVzzd8MqxZ//DFRPki4EjkwMUD1JgHArUnFCgdcApUIowiekUmE0GMqNMFQYjeYyi2IptxosFSmG1OKG6flF7bLbF4/vekPxKdbB1MPh07KemsBUeWRTvPh/KkWXdCdAL64AAAAldEVYdGRhdGU6Y3JlYXRlADIwMjQtMDYtMjJUMDM6NDA6NDMrMDA6MDAmzEBuAAAAJXRFWHRkYXRlOm1vZGlmeQAyMDI0LTA2LTIyVDAzOjQwOjQzKzAwOjAwV5H40gAAAABJRU5ErkJggg==;" vertex="1" parent="1">
                    <mxGeometry x="210" y="130" width="60" height="60" as="geometry"/>
                </mxCell>
                <mxCell id="6" value="&lt;font style=&quot;font-size: 25px;&quot;&gt;Aplicação .NET com MFA / OTP&lt;/font&gt;" style="text;html=1;strokeColor=none;fillColor=none;align=center;verticalAlign=middle;whiteSpace=wrap;rounded=0;" vertex="1" parent="1">
                    <mxGeometry x="280" y="140" width="370" height="30" as="geometry"/>
                </mxCell>
                <mxCell id="7" value="&lt;font style=&quot;font-size: 19px;&quot;&gt;Microsoft.Graph&lt;/font&gt;" style="rounded=1;whiteSpace=wrap;html=1;strokeColor=#d6b656;fillColor=#FFFFCC;" vertex="1" parent="1">
                    <mxGeometry x="430" y="223" width="160" height="90" as="geometry"/>
                </mxCell>
                <mxCell id="8" value="&lt;font style=&quot;font-size: 19px;&quot;&gt;Microsoft.Identity&lt;/font&gt;" style="rounded=1;whiteSpace=wrap;html=1;strokeColor=#d6b656;fillColor=#FFFFCC;" vertex="1" parent="1">
                    <mxGeometry x="640" y="223" width="160" height="90" as="geometry"/>
                </mxCell>
                <mxCell id="9" value="&lt;font style=&quot;font-size: 19px;&quot;&gt;Newtonsoft&lt;/font&gt;" style="rounded=1;whiteSpace=wrap;html=1;strokeColor=#d6b656;fillColor=#FFFFCC;" vertex="1" parent="1">
                    <mxGeometry x="220" y="353" width="160" height="90" as="geometry"/>
                </mxCell>
                <mxCell id="10" value="&lt;font style=&quot;font-size: 19px;&quot;&gt;Serilog&lt;/font&gt;" style="rounded=1;whiteSpace=wrap;html=1;strokeColor=#d6b656;fillColor=#FFFFCC;" vertex="1" parent="1">
                    <mxGeometry x="430" y="353" width="160" height="90" as="geometry"/>
                </mxCell>
                <mxCell id="11" value="&lt;font style=&quot;font-size: 19px;&quot;&gt;Sharprompt&lt;/font&gt;" style="rounded=1;whiteSpace=wrap;html=1;strokeColor=#d6b656;fillColor=#FFFFCC;" vertex="1" parent="1">
                    <mxGeometry x="640" y="353" width="160" height="90" as="geometry"/>
                </mxCell>
                <mxCell id="15" value="" style="group" vertex="1" connectable="0" parent="1">
                    <mxGeometry x="276" y="558" width="140" height="150" as="geometry"/>
                </mxCell>
                <mxCell id="12" value="" style="aspect=fixed;html=1;points=[];align=center;image;fontSize=12;image=data:image/svg+xml,PHN2ZyB4bWxucz0iaHR0cDovL3d3dy53My5vcmcvMjAwMC9zdmciIHZpZXdCb3g9IjAgMCAxOCAxOCIgaGVpZ2h0PSIxOCIgd2lkdGg9IjE4IiBpZD0idXVpZC03N2NjMDNmZS1jZmMyLTQ0NmItOTVmMy05ZmVmNWU3NzJiMzMiPjxkZWZzPjxsaW5lYXJHcmFkaWVudCBncmFkaWVudFVuaXRzPSJ1c2VyU3BhY2VPblVzZSIgZ3JhZGllbnRUcmFuc2Zvcm09InRyYW5zbGF0ZSgwIDc5MS41MTYpIHNjYWxlKDEgLTEpIiB5Mj0iNzg2LjYxIiB4Mj0iMTQuMDgyIiB5MT0iNzc5LjE0OCIgeDE9IjcuNjk3IiBpZD0idXVpZC05ZDAwNzBkMS1lNmMzLTRiZDQtYjc2OS1iZDU4MGZhY2U2YjUiPjxzdG9wIHN0b3AtY29sb3I9IiMyMjUwODYiIG9mZnNldD0iMCIvPjxzdG9wIHN0b3AtY29sb3I9IiMwMDU1YzUiIG9mZnNldD0iMSIvPjwvbGluZWFyR3JhZGllbnQ+PGxpbmVhckdyYWRpZW50IGdyYWRpZW50VW5pdHM9InVzZXJTcGFjZU9uVXNlIiBncmFkaWVudFRyYW5zZm9ybT0idHJhbnNsYXRlKDAgNzkxLjUxNikgc2NhbGUoMSAtMSkiIHkyPSI3OTQuODI0IiB4Mj0iOS4wMDEiIHkxPSI3NzUuOTM1IiB4MT0iOS4wMDEiIGlkPSJ1dWlkLWZiMDdlOWZiLWZkYTEtNGE5OS1hOTc1LTg5YTU3ZjUxNDg4YyI+PHN0b3Agc3RvcC1jb2xvcj0iIzQ0ZGJmOSIgb2Zmc2V0PSIwIi8+PHN0b3Agc3RvcC1jb2xvcj0iI2NiZjhmZiIgb2Zmc2V0PSIxIi8+PC9saW5lYXJHcmFkaWVudD48bGluZWFyR3JhZGllbnQgZ3JhZGllbnRVbml0cz0idXNlclNwYWNlT25Vc2UiIGdyYWRpZW50VHJhbnNmb3JtPSJ0cmFuc2xhdGUoMCA3OTEuNTE2KSBzY2FsZSgxIC0xKSIgeTI9Ijc5NC4zOTEiIHgyPSI2LjM2NCIgeTE9Ijc3OC4xNDMiIHgxPSI2LjM2NCIgaWQ9InV1aWQtMGM3ZWMxNmMtNGE0Yi00MDhhLWFiZDEtMDY4Zjg1NDdlYWFhIj48c3RvcCBzdG9wLWNvbG9yPSIjNmRmIiBvZmZzZXQ9IjAiLz48c3RvcCBzdG9wLWNvbG9yPSIjMDI5NGU0IiBvZmZzZXQ9IjEiLz48L2xpbmVhckdyYWRpZW50PjxsaW5lYXJHcmFkaWVudCBncmFkaWVudFVuaXRzPSJ1c2VyU3BhY2VPblVzZSIgZ3JhZGllbnRUcmFuc2Zvcm09InRyYW5zbGF0ZSgwIDc5MS41MTYpIHNjYWxlKDEgLTEpIiB5Mj0iNzkwLjc2MSIgeDI9IjEzLjUiIHkxPSI3NzQuNyIgeDE9IjEzLjUiIGlkPSJ1dWlkLTczMTJjODZiLTM2ZDctNDUxZS1hYjRkLWIzZTQwZDgwYWE0MiI+PHN0b3Agc3RvcC1jb2xvcj0iIzA0MTY0MiIgb2Zmc2V0PSIwIi8+PHN0b3Agc3RvcC1vcGFjaXR5PSIuMjUiIHN0b3AtY29sb3I9IiMwNDE2NDIiIG9mZnNldD0iMSIvPjwvbGluZWFyR3JhZGllbnQ+PC9kZWZzPjxnPjxwYXRoIHN0cm9rZS13aWR0aD0iMCIgZmlsbD0idXJsKCN1dWlkLTlkMDA3MGQxLWU2YzMtNGJkNC1iNzY5LWJkNTgwZmFjZTZiNSkiIGQ9Im0xNy42NDcsOS45MjZMMTAuMTQ3LDEuNDY2Yy0uNTk5LS42NzYtMS42OTQtLjY3Ni0yLjI5NCwwTC4zNTMsOS45MjZjLS41NzkuNjU0LS40MjgsMS42NDEuMzIzLDIuMTExbDcuNDk5LDQuNjg4Yy41LjMxMywxLjE0OC4zMTMsMS42NDgsMGw3LjQ5OS00LjY4OGMuNzUxLS40NjkuOTAyLTEuNDU3LjMyMy0yLjExMWgwWiIvPjxwb2x5Z29uIHN0cm9rZS13aWR0aD0iMCIgZmlsbD0idXJsKCN1dWlkLWZiMDdlOWZiLWZkYTEtNGE5OS1hOTc1LTg5YTU3ZjUxNDg4YykiIHBvaW50cz0iNC42MzYgMTAuMTU4IDQuNjg4IDEwLjE5IDkuMDAxIDEyLjg4NiA5LjAwMSAxMi44ODYgMTMuMzY1IDEwLjE1OCAxMy4zNjYgMTAuMTU4IDEzLjM2NSAxMC4xNTggOS4wMDEgNS4yMzQgNC42MzYgMTAuMTU4Ii8+PGc+PHBhdGggc3Ryb2tlLXdpZHRoPSIwIiBmaWxsPSJ1cmwoI3V1aWQtMGM3ZWMxNmMtNGE0Yi00MDhhLWFiZDEtMDY4Zjg1NDdlYWFhKSIgZD0ibTEwLjE0OCwxLjQ2NmMtLjU5OS0uNjc2LTEuNjk0LS42NzYtMi4yOTQsMEwuMzU0LDkuOTI2Yy0uNTc5LjY1NC0uNDI4LDEuNjQxLjMyMywyLjExMSwwLDAsMi43NzYsMS43MzUsMy4xMjYsMS45NTQuMzg4LjI0MiwxLjAzMy41MTEsMS43MTUuNTExLjYyMSwwLDEuMTk3LS4xOCwxLjY3Ni0uNDg3LDAsMCwwLDAsLjAwMi0uMDAxbDEuODA0LTEuMTI4LTQuMzY0LTIuNzI4LDQuNDc0LTUuMDQ3Yy41NS0uNjI3LDEuMzc3LTEuMDI2LDIuMzAyLTEuMDI2LjQ3MiwwLC45MTcuMTA3LDEuMzE0LjI5MmwtMi41NzktMi45MDl2LS4wMDJaIi8+PHBhdGggc3Ryb2tlLXdpZHRoPSIwIiBvcGFjaXR5PSIuNSIgZmlsbC1vcGFjaXR5PSIuNSIgZmlsbD0idXJsKCN1dWlkLTczMTJjODZiLTM2ZDctNDUxZS1hYjRkLWIzZTQwZDgwYWE0MikiIGQ9Im05LjAwMSwxNi45NmMuMjg3LDAsLjU3NC0uMDc4LjgyNC0uMjM0bDcuNDk5LTQuNjg4Yy43NTEtLjQ2OS45MDItMS40NTcuMzIzLTIuMTExTDEwLjE0OCwxLjQ2NmMtLjMtLjMzOC0uNzIzLS41MDctMS4xNDctLjUwN3YxNi4wMDFaIi8+PC9nPjwvZz48Zz48cGF0aCBzdHJva2Utd2lkdGg9IjAiIGZpbGw9IiM3NzNhZGMiIGQ9Im0xNy41NTYsMTUuNjZjLjI0MywwLC40NC0uMTk3LjQ0LS40NGgwYzAtMS4zNjItMS4wOS0yLjQ3NS0yLjQ1Mi0yLjUwMi0xLjUzMSwwLTIuMzIyLjk1MS0yLjQ3MiwyLjUwMi0uMDI0LjI0Mi4xNDkuNDU5LjM5LjQ5aDQuMDkzdi0uMDVaIi8+PHBhdGggc3Ryb2tlLXdpZHRoPSIwIiBvcGFjaXR5PSIuOCIgZmlsbD0iI2ZmZiIgZD0ibTE1LjU0NCwxMy4wMzhjLS4yNjYuMDAyLS41MjgtLjA3NC0uNzUxLS4yMmwuNzQxLDEuOTMyLjczMS0xLjkyMmMtLjIxNi4xMzUtLjQ2Ni4yMDgtLjcyMS4yMVoiLz48Y2lyY2xlIHN0cm9rZS13aWR0aD0iMCIgZmlsbD0iIzc3M2FkYyIgcj0iMS4zODEiIGN5PSIxMS42NTciIGN4PSIxNS41NDQiLz48cGF0aCBzdHJva2Utd2lkdGg9IjAiIGZpbGw9IiNhNjdhZjQiIGQ9Im0xNC43ODQsMTcuMDQxYy4zNTkuMDA2LjY1NS0uMjgxLjY2MS0uNjQsMC0uMDA3LDAtLjAxMywwLS4wMnYtLjA4Yy0uMjYtMi4wNTItMS40MzEtMy43MzMtMy42NzMtMy43MzNzLTMuNDUzLDEuNDIxLTMuNjczLDMuNzQzYy0uMDQxLjM1Ny4yMTYuNjc5LjU3My43Mi4wMDIsMCwuMDA1LDAsLjAwOCwwaDYuMTE1bC0uMDEuMDFaIi8+PHBhdGggc3Ryb2tlLXdpZHRoPSIwIiBvcGFjaXR5PSIuOCIgZmlsbD0iI2ZmZiIgZD0ibTExLjgwMSwxMy4wNThjLS4zOTUuMDAyLS43ODEtLjExMy0xLjExMS0uMzNsMS4xMDEsMi45MzIsMS4xMDEtMi44NzJjLS4zMy4xOTItLjcwOS4yODYtMS4wOTEuMjdaIi8+PGNpcmNsZSBzdHJva2Utd2lkdGg9IjAiIGZpbGw9IiNhNjdhZjQiIHI9IjIuMDYyIiBjeT0iMTAuOTk3IiBjeD0iMTEuNzkxIi8+PC9nPjwvc3ZnPg==;strokeColor=#000099;fillColor=#FFFFCC;" vertex="1" parent="15">
                    <mxGeometry x="10" width="120" height="120" as="geometry"/>
                </mxCell>
                <mxCell id="13" value="Azure AD B2C" style="text;html=1;strokeColor=none;fillColor=none;align=center;verticalAlign=middle;whiteSpace=wrap;rounded=0;fontSize=19;" vertex="1" parent="15">
                    <mxGeometry y="120" width="140" height="30" as="geometry"/>
                </mxCell>
                <mxCell id="14" value="" style="edgeStyle=none;html=1;fontSize=19;" edge="1" parent="15" source="13" target="12">
                    <mxGeometry relative="1" as="geometry"/>
                </mxCell>
                <mxCell id="17" value="" style="group" vertex="1" connectable="0" parent="1">
                    <mxGeometry x="605" y="558" width="140" height="150" as="geometry"/>
                </mxCell>
                <mxCell id="18" value="" style="aspect=fixed;html=1;points=[];align=center;image;fontSize=12;image=data:image/svg+xml,PHN2ZyB4bWxuczp4bGluaz0iaHR0cDovL3d3dy53My5vcmcvMTk5OS94bGluayIgeG1sbnM9Imh0dHA6Ly93d3cudzMub3JnLzIwMDAvc3ZnIiB4bWw6c3BhY2U9InByZXNlcnZlIiBzdHlsZT0iZW5hYmxlLWJhY2tncm91bmQ6bmV3IDAgMCA0OCA0ODsiIHZpZXdCb3g9IjAgMCA0OCA0OCIgeT0iMHB4IiB4PSIwcHgiIGlkPSJMYXllcl8xIiB2ZXJzaW9uPSIxLjEiPgo8c3R5bGUgdHlwZT0idGV4dC9jc3MiPgoJLnN0MHtjbGlwLXBhdGg6dXJsKCNTVkdJRF8yXyk7ZmlsbDojMjhBOEVBO30KCS5zdDF7Y2xpcC1wYXRoOnVybCgjU1ZHSURfMl8pO2ZpbGw6IzAwNzhENDt9Cgkuc3Qye2NsaXAtcGF0aDp1cmwoI1NWR0lEXzJfKTtmaWxsOiMwMzY0Qjg7fQoJLnN0M3tjbGlwLXBhdGg6dXJsKCNTVkdJRF8yXyk7ZmlsbDojMTQ0NDdEO30KCS5zdDR7Y2xpcC1wYXRoOnVybCgjU1ZHSURfMl8pO2ZpbGw6IzBGMzM1RTt9Cgkuc3Q1e2NsaXAtcGF0aDp1cmwoI1NWR0lEXzJfKTtmaWxsOiM1MEQ5RkY7fQo8L3N0eWxlPgo8Zz4KCTxkZWZzPgoJCTxwYXRoIGQ9Ik0zNC45LDMuMkgxMy4xYy0wLjcsMC0xLjQsMC40LTEuOCwxTDAuNSwyM2MtMC40LDAuNi0wLjQsMS40LDAsMi4xbDEwLjksMTguN2MwLjQsMC42LDEuMSwxLDEuOCwxaDIxLjcgICAgYzAuNywwLDEuNC0wLjQsMS44LTFMNDcuNSwyNWMwLjQtMC42LDAuNC0xLjQsMC0yLjFMMzYuNyw0LjNDMzYuMywzLjYsMzUuNiwzLjIsMzQuOSwzLjJ6IiBpZD0iU1ZHSURfMV8iLz4KCTwvZGVmcz4KCTxjbGlwUGF0aCBpZD0iU1ZHSURfMl8iPgoJCTx1c2Ugc3R5bGU9Im92ZXJmbG93OnZpc2libGU7IiB4bGluazpocmVmPSIjU1ZHSURfMV8iLz4KCTwvY2xpcFBhdGg+Cgk8cG9seWdvbiBwb2ludHM9IjExLjMsMy4xIDE1LjYsMTEuMSAzNS40LDMuMSIgY2xhc3M9InN0MCIvPgoJPHBvbHlnb24gcG9pbnRzPSIxMS4zLDMuMSAxNS42LDExLjEgMC4yLDIzLjMgMC4yLDMuMSIgY2xhc3M9InN0MSIvPgoJPHBvbHlnb24gcG9pbnRzPSItMC44LDI0IDE1LjYsMTEuMSAxNi41LDM3LjEiIGNsYXNzPSJzdDIiLz4KCTxwb2x5Z29uIHBvaW50cz0iLTAuOCwyNCAxNi41LDM3LjEgMTEuNSw0NC44IDAuMiw0NS4yIiBjbGFzcz0ic3QzIi8+Cgk8cG9seWdvbiBwb2ludHM9IjExLjUsNDQuOCAxNi41LDM3LjEgMzYuMiw0NS4yIiBjbGFzcz0ic3Q0Ii8+Cgk8cG9seWdvbiBwb2ludHM9IjE2LjUsMzcuMSAzNi43LDI0IDM2LjIsNDUuMiIgY2xhc3M9InN0MiIvPgoJPHBvbHlnb24gcG9pbnRzPSIxNi41LDM3LjEgMTUuNiwxMS4xIDM2LjcsMjQiIGNsYXNzPSJzdDAiLz4KCTxwb2x5Z29uIHBvaW50cz0iMTUuNiwxMS4xIDM2LjIsMi44IDM2LjcsMjQiIGNsYXNzPSJzdDUiLz4KCTxwb2x5Z29uIHBvaW50cz0iMzYuNywyNCAzNi4yLDIuOCA0OC4xLDMuMSA0OC4xLDI0IiBjbGFzcz0ic3QwIi8+Cgk8cG9seWdvbiBwb2ludHM9IjM2LjcsMjQgMzYuMiw0NS45IDQ3LjUsNDUuOSA0OC4xLDI0IiBjbGFzcz0ic3QxIi8+CjwvZz4KPC9zdmc+;strokeColor=#000099;fillColor=#FFFFCC;" vertex="1" parent="17">
                    <mxGeometry x="10" width="120" height="120" as="geometry"/>
                </mxCell>
                <mxCell id="19" value="Graph API" style="text;html=1;strokeColor=none;fillColor=none;align=center;verticalAlign=middle;whiteSpace=wrap;rounded=0;fontSize=19;" vertex="1" parent="17">
                    <mxGeometry y="120" width="140" height="30" as="geometry"/>
                </mxCell>
                <mxCell id="20" value="" style="edgeStyle=none;html=1;fontSize=19;" edge="1" parent="17" source="19" target="18">
                    <mxGeometry relative="1" as="geometry"/>
                </mxCell>
            </root>
        </mxGraphModel>
    </diagram>
</mxfile>